# xmcd CD database file
#
# Track frame offsets:
#	150
#	31570
#	64637
#	79310
#	98974
#	134796
#	161110
#	191093
#	221659
#
# Disc length: 3155 seconds
#
# Revision: 0
# Processed by: cddbd v1.5PL3 Copyright (c) Steve Scherf et al.
# Submitted via: CDex 1.51
#
DISCID=800c5109
DTITLE=Marimba plus - Charmed World
DYEAR=2003
DGENRE=Jazz
TTITLE0=Sertao
TTITLE1=Goods of Uruba
TTITLE2=Unisons
TTITLE3=Moon Night
TTITLE4=Mechanical Aggressor
TTITLE5=Strange Waltz
TTITLE6=The Afternoon Rest of Uncle Sam
TTITLE7=Charmed World
TTITLE8=Rhythm Song
EXTD=YEAR: 2003
EXTT0=
EXTT1=
EXTT2=
EXTT3=
EXTT4=
EXTT5=
EXTT6=
EXTT7=
EXTT8=
PLAYORDER=
